<mxfile host="app.diagrams.net" agent="Mozilla/5.0 (Windows NT 10.0; Win64; x64) AppleWebKit/537.36 (KHTML, like Gecko) Chrome/141.0.0.0 Safari/537.36" version="28.2.5">
  <diagram name="Page-1" id="HGhDrE6zya3P7SlBv3MO">
    <mxGraphModel dx="925" dy="1686" grid="1" gridSize="10" guides="1" tooltips="1" connect="1" arrows="1" fold="1" page="1" pageScale="1" pageWidth="850" pageHeight="1100" math="0" shadow="0">
      <root>
        <mxCell id="0" />
        <mxCell id="1" parent="0" />
        <mxCell id="2mKp_U9Lu3QA6d04hyzo-1" value="Start" style="ellipse;whiteSpace=wrap;html=1;" vertex="1" parent="1">
          <mxGeometry x="365" y="-1060" width="120" height="60" as="geometry" />
        </mxCell>
        <mxCell id="2mKp_U9Lu3QA6d04hyzo-2" value="" style="endArrow=classic;html=1;rounded=0;exitX=0.5;exitY=1;exitDx=0;exitDy=0;" edge="1" parent="1" source="2mKp_U9Lu3QA6d04hyzo-1" target="2mKp_U9Lu3QA6d04hyzo-3">
          <mxGeometry width="50" height="50" relative="1" as="geometry">
            <mxPoint x="380" y="-860" as="sourcePoint" />
            <mxPoint x="425" y="-960" as="targetPoint" />
          </mxGeometry>
        </mxCell>
        <mxCell id="2mKp_U9Lu3QA6d04hyzo-3" value="print &quot;Enter account username:&quot;" style="shape=parallelogram;perimeter=parallelogramPerimeter;whiteSpace=wrap;html=1;fixedSize=1;" vertex="1" parent="1">
          <mxGeometry x="345" y="-970" width="160" height="50" as="geometry" />
        </mxCell>
        <mxCell id="2mKp_U9Lu3QA6d04hyzo-4" value="" style="endArrow=classic;html=1;rounded=0;exitX=0.5;exitY=1;exitDx=0;exitDy=0;" edge="1" parent="1" source="2mKp_U9Lu3QA6d04hyzo-3" target="2mKp_U9Lu3QA6d04hyzo-5">
          <mxGeometry width="50" height="50" relative="1" as="geometry">
            <mxPoint x="430" y="-900" as="sourcePoint" />
            <mxPoint x="425" y="-880" as="targetPoint" />
          </mxGeometry>
        </mxCell>
        <mxCell id="2mKp_U9Lu3QA6d04hyzo-5" value="input account username" style="shape=parallelogram;perimeter=parallelogramPerimeter;whiteSpace=wrap;html=1;fixedSize=1;" vertex="1" parent="1">
          <mxGeometry x="365" y="-890" width="120" height="40" as="geometry" />
        </mxCell>
        <mxCell id="2mKp_U9Lu3QA6d04hyzo-6" value="" style="endArrow=classic;html=1;rounded=0;exitX=0.5;exitY=1;exitDx=0;exitDy=0;" edge="1" parent="1" source="2mKp_U9Lu3QA6d04hyzo-5">
          <mxGeometry width="50" height="50" relative="1" as="geometry">
            <mxPoint x="380" y="-860" as="sourcePoint" />
            <mxPoint x="425" y="-820" as="targetPoint" />
          </mxGeometry>
        </mxCell>
        <mxCell id="2mKp_U9Lu3QA6d04hyzo-7" value="input account password" style="shape=parallelogram;perimeter=parallelogramPerimeter;whiteSpace=wrap;html=1;fixedSize=1;" vertex="1" parent="1">
          <mxGeometry x="360" y="-630" width="120" height="50" as="geometry" />
        </mxCell>
        <mxCell id="2mKp_U9Lu3QA6d04hyzo-8" value="print&quot;Enter password:&quot;" style="shape=parallelogram;perimeter=parallelogramPerimeter;whiteSpace=wrap;html=1;fixedSize=1;" vertex="1" parent="1">
          <mxGeometry x="365" y="-700" width="120" height="40" as="geometry" />
        </mxCell>
        <mxCell id="2mKp_U9Lu3QA6d04hyzo-11" value="Does username exist?" style="rhombus;whiteSpace=wrap;html=1;" vertex="1" parent="1">
          <mxGeometry x="385" y="-820" width="80" height="80" as="geometry" />
        </mxCell>
        <mxCell id="2mKp_U9Lu3QA6d04hyzo-13" value="T" style="endArrow=classic;html=1;rounded=0;exitX=0.5;exitY=1;exitDx=0;exitDy=0;entryX=0.5;entryY=0;entryDx=0;entryDy=0;" edge="1" parent="1" source="2mKp_U9Lu3QA6d04hyzo-11" target="2mKp_U9Lu3QA6d04hyzo-8">
          <mxGeometry width="50" height="50" relative="1" as="geometry">
            <mxPoint x="380" y="-680" as="sourcePoint" />
            <mxPoint x="430" y="-730" as="targetPoint" />
          </mxGeometry>
        </mxCell>
        <mxCell id="2mKp_U9Lu3QA6d04hyzo-15" value="" style="endArrow=classic;html=1;rounded=0;exitX=0.5;exitY=1;exitDx=0;exitDy=0;entryX=0.55;entryY=0.056;entryDx=0;entryDy=0;entryPerimeter=0;" edge="1" parent="1" source="2mKp_U9Lu3QA6d04hyzo-8" target="2mKp_U9Lu3QA6d04hyzo-7">
          <mxGeometry width="50" height="50" relative="1" as="geometry">
            <mxPoint x="380" y="-680" as="sourcePoint" />
            <mxPoint x="460" y="-650" as="targetPoint" />
          </mxGeometry>
        </mxCell>
        <mxCell id="2mKp_U9Lu3QA6d04hyzo-16" value="F" style="endArrow=classic;html=1;rounded=0;exitX=1;exitY=0.5;exitDx=0;exitDy=0;" edge="1" parent="1" source="2mKp_U9Lu3QA6d04hyzo-11">
          <mxGeometry width="50" height="50" relative="1" as="geometry">
            <mxPoint x="380" y="-680" as="sourcePoint" />
            <mxPoint x="510" y="-780" as="targetPoint" />
          </mxGeometry>
        </mxCell>
        <mxCell id="2mKp_U9Lu3QA6d04hyzo-17" value="print &quot;Please input another username:&quot;" style="shape=parallelogram;perimeter=parallelogramPerimeter;whiteSpace=wrap;html=1;fixedSize=1;" vertex="1" parent="1">
          <mxGeometry x="500" y="-810" width="140" height="60" as="geometry" />
        </mxCell>
        <mxCell id="2mKp_U9Lu3QA6d04hyzo-19" value="" style="endArrow=classic;html=1;rounded=0;exitX=0.5;exitY=0;exitDx=0;exitDy=0;" edge="1" parent="1" source="2mKp_U9Lu3QA6d04hyzo-17">
          <mxGeometry width="50" height="50" relative="1" as="geometry">
            <mxPoint x="380" y="-770" as="sourcePoint" />
            <mxPoint x="430" y="-990" as="targetPoint" />
            <Array as="points">
              <mxPoint x="570" y="-990" />
            </Array>
          </mxGeometry>
        </mxCell>
        <mxCell id="2mKp_U9Lu3QA6d04hyzo-20" value="" style="endArrow=classic;html=1;rounded=0;exitX=0.5;exitY=1;exitDx=0;exitDy=0;" edge="1" parent="1" source="2mKp_U9Lu3QA6d04hyzo-7">
          <mxGeometry width="50" height="50" relative="1" as="geometry">
            <mxPoint x="380" y="-600" as="sourcePoint" />
            <mxPoint x="420" y="-540" as="targetPoint" />
          </mxGeometry>
        </mxCell>
        <mxCell id="2mKp_U9Lu3QA6d04hyzo-21" value="Does password match with username?" style="rhombus;whiteSpace=wrap;html=1;" vertex="1" parent="1">
          <mxGeometry x="370" y="-540" width="100" height="90" as="geometry" />
        </mxCell>
        <mxCell id="2mKp_U9Lu3QA6d04hyzo-22" value="F" style="endArrow=classic;html=1;rounded=0;exitX=1;exitY=0.5;exitDx=0;exitDy=0;" edge="1" parent="1" source="2mKp_U9Lu3QA6d04hyzo-21">
          <mxGeometry width="50" height="50" relative="1" as="geometry">
            <mxPoint x="380" y="-420" as="sourcePoint" />
            <mxPoint x="520" y="-495" as="targetPoint" />
          </mxGeometry>
        </mxCell>
        <mxCell id="2mKp_U9Lu3QA6d04hyzo-23" value="print&quot;Incorrect Password. Please try again.&quot;" style="shape=parallelogram;perimeter=parallelogramPerimeter;whiteSpace=wrap;html=1;fixedSize=1;" vertex="1" parent="1">
          <mxGeometry x="510" y="-525" width="120" height="60" as="geometry" />
        </mxCell>
        <mxCell id="2mKp_U9Lu3QA6d04hyzo-24" value="" style="endArrow=classic;html=1;rounded=0;exitX=0.58;exitY=0.016;exitDx=0;exitDy=0;exitPerimeter=0;" edge="1" parent="1" source="2mKp_U9Lu3QA6d04hyzo-23">
          <mxGeometry width="50" height="50" relative="1" as="geometry">
            <mxPoint x="380" y="-600" as="sourcePoint" />
            <mxPoint x="430" y="-730" as="targetPoint" />
            <Array as="points">
              <mxPoint x="580" y="-730" />
            </Array>
          </mxGeometry>
        </mxCell>
        <mxCell id="2mKp_U9Lu3QA6d04hyzo-25" value="T" style="endArrow=classic;html=1;rounded=0;exitX=0.5;exitY=1;exitDx=0;exitDy=0;" edge="1" parent="1" source="2mKp_U9Lu3QA6d04hyzo-21">
          <mxGeometry width="50" height="50" relative="1" as="geometry">
            <mxPoint x="380" y="-420" as="sourcePoint" />
            <mxPoint x="420" y="-420" as="targetPoint" />
          </mxGeometry>
        </mxCell>
        <mxCell id="2mKp_U9Lu3QA6d04hyzo-26" value="print &quot;Access granted.&amp;nbsp;" style="shape=parallelogram;perimeter=parallelogramPerimeter;whiteSpace=wrap;html=1;fixedSize=1;" vertex="1" parent="1">
          <mxGeometry x="360" y="-420" width="120" height="40" as="geometry" />
        </mxCell>
        <mxCell id="2mKp_U9Lu3QA6d04hyzo-28" value="print&quot; Enter the service you want to avail:&lt;div&gt;1. Check Balance&lt;/div&gt;&lt;div&gt;2. Transaction Station&lt;/div&gt;&lt;div&gt;3. Transaction Archive&lt;/div&gt;&lt;div&gt;4.Budget calculator&lt;/div&gt;&lt;div&gt;5.Currency Converter&lt;/div&gt;&lt;div&gt;6.Exit&lt;/div&gt;" style="shape=parallelogram;perimeter=parallelogramPerimeter;whiteSpace=wrap;html=1;fixedSize=1;" vertex="1" parent="1">
          <mxGeometry x="285" y="-350" width="270" height="110" as="geometry" />
        </mxCell>
        <mxCell id="2mKp_U9Lu3QA6d04hyzo-31" value="" style="endArrow=classic;html=1;rounded=0;exitX=0.5;exitY=1;exitDx=0;exitDy=0;" edge="1" parent="1" source="2mKp_U9Lu3QA6d04hyzo-26" target="2mKp_U9Lu3QA6d04hyzo-28">
          <mxGeometry width="50" height="50" relative="1" as="geometry">
            <mxPoint x="430" y="-350" as="sourcePoint" />
            <mxPoint x="430" y="-300" as="targetPoint" />
          </mxGeometry>
        </mxCell>
        <mxCell id="2mKp_U9Lu3QA6d04hyzo-32" value="" style="endArrow=classic;html=1;rounded=0;exitX=0.526;exitY=1;exitDx=0;exitDy=0;exitPerimeter=0;" edge="1" parent="1" source="2mKp_U9Lu3QA6d04hyzo-28">
          <mxGeometry width="50" height="50" relative="1" as="geometry">
            <mxPoint x="380" y="-250" as="sourcePoint" />
            <mxPoint x="427" y="-200" as="targetPoint" />
          </mxGeometry>
        </mxCell>
        <mxCell id="2mKp_U9Lu3QA6d04hyzo-33" value="input service num" style="shape=parallelogram;perimeter=parallelogramPerimeter;whiteSpace=wrap;html=1;fixedSize=1;" vertex="1" parent="1">
          <mxGeometry x="370" y="-200" width="120" height="40" as="geometry" />
        </mxCell>
        <mxCell id="2mKp_U9Lu3QA6d04hyzo-36" value="" style="endArrow=classic;html=1;rounded=0;exitX=0;exitY=0.5;exitDx=0;exitDy=0;" edge="1" parent="1" source="2mKp_U9Lu3QA6d04hyzo-33">
          <mxGeometry width="50" height="50" relative="1" as="geometry">
            <mxPoint x="380" y="-110" as="sourcePoint" />
            <mxPoint x="350" y="-180" as="targetPoint" />
          </mxGeometry>
        </mxCell>
        <mxCell id="2mKp_U9Lu3QA6d04hyzo-37" value="Is service num = 1?" style="rhombus;whiteSpace=wrap;html=1;" vertex="1" parent="1">
          <mxGeometry x="270" y="-210" width="80" height="60" as="geometry" />
        </mxCell>
        <mxCell id="2mKp_U9Lu3QA6d04hyzo-38" value="T" style="endArrow=classic;html=1;rounded=0;exitX=0.5;exitY=1;exitDx=0;exitDy=0;" edge="1" parent="1" source="2mKp_U9Lu3QA6d04hyzo-37">
          <mxGeometry width="50" height="50" relative="1" as="geometry">
            <mxPoint x="200" y="-60" as="sourcePoint" />
            <mxPoint x="310" y="-120" as="targetPoint" />
          </mxGeometry>
        </mxCell>
        <mxCell id="2mKp_U9Lu3QA6d04hyzo-39" value="1" style="verticalLabelPosition=bottom;verticalAlign=top;html=1;shape=offPageConnector;rounded=0;size=0.4;" vertex="1" parent="1">
          <mxGeometry x="280" y="-120" width="60" height="50" as="geometry" />
        </mxCell>
        <mxCell id="2mKp_U9Lu3QA6d04hyzo-40" value="F" style="endArrow=classic;html=1;rounded=0;exitX=0;exitY=0.5;exitDx=0;exitDy=0;" edge="1" parent="1" source="2mKp_U9Lu3QA6d04hyzo-37">
          <mxGeometry width="50" height="50" relative="1" as="geometry">
            <mxPoint x="250" y="-170" as="sourcePoint" />
            <mxPoint x="240" y="-180" as="targetPoint" />
          </mxGeometry>
        </mxCell>
        <mxCell id="2mKp_U9Lu3QA6d04hyzo-41" value="Is service num = 2?" style="rhombus;whiteSpace=wrap;html=1;" vertex="1" parent="1">
          <mxGeometry x="160" y="-210" width="80" height="60" as="geometry" />
        </mxCell>
        <mxCell id="2mKp_U9Lu3QA6d04hyzo-45" value="T" style="endArrow=classic;html=1;rounded=0;exitX=0.5;exitY=1;exitDx=0;exitDy=0;" edge="1" parent="1" source="2mKp_U9Lu3QA6d04hyzo-41">
          <mxGeometry width="50" height="50" relative="1" as="geometry">
            <mxPoint x="200" y="-160" as="sourcePoint" />
            <mxPoint x="200" y="-120" as="targetPoint" />
          </mxGeometry>
        </mxCell>
        <mxCell id="2mKp_U9Lu3QA6d04hyzo-46" value="F" style="endArrow=classic;html=1;rounded=0;exitX=0;exitY=0.5;exitDx=0;exitDy=0;" edge="1" parent="1" source="2mKp_U9Lu3QA6d04hyzo-41">
          <mxGeometry width="50" height="50" relative="1" as="geometry">
            <mxPoint x="200" y="-160" as="sourcePoint" />
            <mxPoint x="130" y="-180" as="targetPoint" />
          </mxGeometry>
        </mxCell>
        <mxCell id="2mKp_U9Lu3QA6d04hyzo-47" value="Is service num = 3?" style="rhombus;whiteSpace=wrap;html=1;" vertex="1" parent="1">
          <mxGeometry x="50" y="-210" width="80" height="60" as="geometry" />
        </mxCell>
        <mxCell id="2mKp_U9Lu3QA6d04hyzo-48" value="T" style="endArrow=classic;html=1;rounded=0;exitX=0.5;exitY=1;exitDx=0;exitDy=0;" edge="1" parent="1" source="2mKp_U9Lu3QA6d04hyzo-47">
          <mxGeometry width="50" height="50" relative="1" as="geometry">
            <mxPoint x="90" y="-140" as="sourcePoint" />
            <mxPoint x="90" y="-120" as="targetPoint" />
          </mxGeometry>
        </mxCell>
        <mxCell id="2mKp_U9Lu3QA6d04hyzo-49" value="2" style="verticalLabelPosition=bottom;verticalAlign=top;html=1;shape=offPageConnector;rounded=0;size=0.4;" vertex="1" parent="1">
          <mxGeometry x="170" y="-120" width="60" height="50" as="geometry" />
        </mxCell>
        <mxCell id="2mKp_U9Lu3QA6d04hyzo-50" value="3" style="verticalLabelPosition=bottom;verticalAlign=top;html=1;shape=offPageConnector;rounded=0;size=0.5;" vertex="1" parent="1">
          <mxGeometry x="60" y="-120" width="60" height="50" as="geometry" />
        </mxCell>
        <mxCell id="2mKp_U9Lu3QA6d04hyzo-51" value="F" style="endArrow=classic;html=1;rounded=0;exitX=0.5;exitY=0;exitDx=0;exitDy=0;" edge="1" parent="1" source="2mKp_U9Lu3QA6d04hyzo-47" target="2mKp_U9Lu3QA6d04hyzo-52">
          <mxGeometry width="50" height="50" relative="1" as="geometry">
            <mxPoint x="200" y="-160" as="sourcePoint" />
            <mxPoint x="90" y="-250" as="targetPoint" />
          </mxGeometry>
        </mxCell>
        <mxCell id="2mKp_U9Lu3QA6d04hyzo-52" value="" style="verticalLabelPosition=bottom;verticalAlign=top;html=1;shape=mxgraph.flowchart.on-page_reference;" vertex="1" parent="1">
          <mxGeometry x="60" y="-310" width="60" height="60" as="geometry" />
        </mxCell>
        <mxCell id="2mKp_U9Lu3QA6d04hyzo-55" value="1" style="text;html=1;align=center;verticalAlign=middle;whiteSpace=wrap;rounded=0;" vertex="1" parent="1">
          <mxGeometry x="60" y="-295" width="60" height="30" as="geometry" />
        </mxCell>
        <mxCell id="2mKp_U9Lu3QA6d04hyzo-57" value="" style="verticalLabelPosition=bottom;verticalAlign=top;html=1;shape=mxgraph.flowchart.on-page_reference;" vertex="1" parent="1">
          <mxGeometry x="505" y="-210" width="60" height="60" as="geometry" />
        </mxCell>
        <mxCell id="2mKp_U9Lu3QA6d04hyzo-60" value="1" style="text;html=1;align=center;verticalAlign=middle;whiteSpace=wrap;rounded=0;" vertex="1" parent="1">
          <mxGeometry x="505" y="-195" width="60" height="30" as="geometry" />
        </mxCell>
        <mxCell id="2mKp_U9Lu3QA6d04hyzo-62" value="" style="endArrow=classic;html=1;rounded=0;exitX=1;exitY=0.5;exitDx=0;exitDy=0;" edge="1" parent="1" source="2mKp_U9Lu3QA6d04hyzo-60">
          <mxGeometry width="50" height="50" relative="1" as="geometry">
            <mxPoint x="570" y="-60" as="sourcePoint" />
            <mxPoint x="600" y="-180" as="targetPoint" />
          </mxGeometry>
        </mxCell>
        <mxCell id="2mKp_U9Lu3QA6d04hyzo-63" value="Is service num = 4?" style="rhombus;whiteSpace=wrap;html=1;" vertex="1" parent="1">
          <mxGeometry x="600" y="-210" width="80" height="60" as="geometry" />
        </mxCell>
        <mxCell id="2mKp_U9Lu3QA6d04hyzo-65" value="T" style="endArrow=classic;html=1;rounded=0;exitX=0.5;exitY=1;exitDx=0;exitDy=0;" edge="1" parent="1" source="2mKp_U9Lu3QA6d04hyzo-63" target="2mKp_U9Lu3QA6d04hyzo-66">
          <mxGeometry width="50" height="50" relative="1" as="geometry">
            <mxPoint x="570" y="-160" as="sourcePoint" />
            <mxPoint x="640" y="-110" as="targetPoint" />
          </mxGeometry>
        </mxCell>
        <mxCell id="2mKp_U9Lu3QA6d04hyzo-66" value="4" style="verticalLabelPosition=bottom;verticalAlign=top;html=1;shape=offPageConnector;rounded=0;size=0.5;" vertex="1" parent="1">
          <mxGeometry x="610" y="-120" width="60" height="50" as="geometry" />
        </mxCell>
        <mxCell id="2mKp_U9Lu3QA6d04hyzo-67" value="F" style="endArrow=classic;html=1;rounded=0;exitX=1;exitY=0.5;exitDx=0;exitDy=0;" edge="1" parent="1" source="2mKp_U9Lu3QA6d04hyzo-63">
          <mxGeometry width="50" height="50" relative="1" as="geometry">
            <mxPoint x="570" y="-160" as="sourcePoint" />
            <mxPoint x="710" y="-180" as="targetPoint" />
          </mxGeometry>
        </mxCell>
        <mxCell id="2mKp_U9Lu3QA6d04hyzo-68" value="Is service num = 5?" style="rhombus;whiteSpace=wrap;html=1;" vertex="1" parent="1">
          <mxGeometry x="710" y="-210" width="80" height="60" as="geometry" />
        </mxCell>
        <mxCell id="2mKp_U9Lu3QA6d04hyzo-69" value="" style="endArrow=classic;html=1;rounded=0;exitX=0.5;exitY=1;exitDx=0;exitDy=0;" edge="1" parent="1" source="2mKp_U9Lu3QA6d04hyzo-68">
          <mxGeometry width="50" height="50" relative="1" as="geometry">
            <mxPoint x="730" y="-160" as="sourcePoint" />
            <mxPoint x="750" y="-120" as="targetPoint" />
          </mxGeometry>
        </mxCell>
        <mxCell id="2mKp_U9Lu3QA6d04hyzo-70" value="5" style="verticalLabelPosition=bottom;verticalAlign=top;html=1;shape=offPageConnector;rounded=0;size=0.5;" vertex="1" parent="1">
          <mxGeometry x="720" y="-120" width="60" height="50" as="geometry" />
        </mxCell>
        <mxCell id="2mKp_U9Lu3QA6d04hyzo-71" value="F" style="endArrow=classic;html=1;rounded=0;exitX=0.5;exitY=0;exitDx=0;exitDy=0;" edge="1" parent="1" source="2mKp_U9Lu3QA6d04hyzo-68">
          <mxGeometry width="50" height="50" relative="1" as="geometry">
            <mxPoint x="730" y="-160" as="sourcePoint" />
            <mxPoint x="750" y="-250" as="targetPoint" />
          </mxGeometry>
        </mxCell>
        <mxCell id="2mKp_U9Lu3QA6d04hyzo-72" value="Is service num = 6?" style="strokeWidth=2;html=1;shape=mxgraph.flowchart.decision;whiteSpace=wrap;" vertex="1" parent="1">
          <mxGeometry x="700" y="-305" width="100" height="55" as="geometry" />
        </mxCell>
        <mxCell id="2mKp_U9Lu3QA6d04hyzo-73" value="" style="endArrow=classic;html=1;rounded=0;exitX=0.5;exitY=0;exitDx=0;exitDy=0;exitPerimeter=0;" edge="1" parent="1" source="2mKp_U9Lu3QA6d04hyzo-72">
          <mxGeometry width="50" height="50" relative="1" as="geometry">
            <mxPoint x="730" y="-160" as="sourcePoint" />
            <mxPoint x="750" y="-340" as="targetPoint" />
          </mxGeometry>
        </mxCell>
        <mxCell id="2mKp_U9Lu3QA6d04hyzo-74" value="" style="endArrow=classic;html=1;rounded=0;" edge="1" parent="1">
          <mxGeometry relative="1" as="geometry">
            <mxPoint x="710" y="-180" as="sourcePoint" />
            <mxPoint x="810" y="-180" as="targetPoint" />
          </mxGeometry>
        </mxCell>
        <mxCell id="2mKp_U9Lu3QA6d04hyzo-75" value="" style="shape=message;html=1;outlineConnect=0;" vertex="1" parent="2mKp_U9Lu3QA6d04hyzo-74">
          <mxGeometry width="20" height="14" relative="1" as="geometry">
            <mxPoint x="-10" y="-7" as="offset" />
          </mxGeometry>
        </mxCell>
        <mxCell id="2mKp_U9Lu3QA6d04hyzo-76" value="F" style="endArrow=classic;html=1;rounded=0;exitX=0;exitY=0.5;exitDx=0;exitDy=0;exitPerimeter=0;" edge="1" parent="1" source="2mKp_U9Lu3QA6d04hyzo-72">
          <mxGeometry width="50" height="50" relative="1" as="geometry">
            <mxPoint x="730" y="-160" as="sourcePoint" />
            <mxPoint x="670" y="-277" as="targetPoint" />
          </mxGeometry>
        </mxCell>
        <mxCell id="2mKp_U9Lu3QA6d04hyzo-78" value="print&quot;Invalid service no. was input. Please input a valid one.&quot;" style="shape=parallelogram;perimeter=parallelogramPerimeter;whiteSpace=wrap;html=1;fixedSize=1;" vertex="1" parent="1">
          <mxGeometry x="560" y="-310" width="120" height="60" as="geometry" />
        </mxCell>
        <mxCell id="2mKp_U9Lu3QA6d04hyzo-79" value="" style="endArrow=classic;html=1;rounded=0;exitX=0.5;exitY=1;exitDx=0;exitDy=0;" edge="1" parent="1" source="2mKp_U9Lu3QA6d04hyzo-78">
          <mxGeometry width="50" height="50" relative="1" as="geometry">
            <mxPoint x="730" y="-260" as="sourcePoint" />
            <mxPoint x="430" y="-220" as="targetPoint" />
            <Array as="points">
              <mxPoint x="620" y="-220" />
            </Array>
          </mxGeometry>
        </mxCell>
        <mxCell id="2mKp_U9Lu3QA6d04hyzo-81" value="" style="verticalLabelPosition=bottom;verticalAlign=top;html=1;shape=offPageConnector;rounded=0;size=0.5;" vertex="1" parent="1">
          <mxGeometry x="720" y="-400" width="60" height="60" as="geometry" />
        </mxCell>
        <mxCell id="2mKp_U9Lu3QA6d04hyzo-82" value="6" style="text;html=1;align=center;verticalAlign=middle;whiteSpace=wrap;rounded=0;" vertex="1" parent="1">
          <mxGeometry x="720" y="-385" width="60" height="30" as="geometry" />
        </mxCell>
      </root>
    </mxGraphModel>
  </diagram>
</mxfile>
